<svg preserveAspectRatio="none" width="100%" height="100%" overflow="visible" style="display: block;" viewBox="0 0 20.0003 20.7331" fill="none" xmlns="http://www.w3.org/2000/svg">
<g id="Icon">
<path d="M10.0001 14.7331C11.657 14.7331 13.0001 13.39 13.0001 11.7331C13.0001 10.0763 11.657 8.73314 10.0001 8.73314C8.34329 8.73314 7.00014 10.0763 7.00014 11.7331C7.00014 13.39 8.34329 14.7331 10.0001 14.7331Z" stroke="#B78A66" stroke-width="2" stroke-linecap="round" stroke-linejoin="round"/>
<path d="M1.00014 9.29821C1.00014 8.72385 1.00014 8.43667 1.07417 8.17221C1.13974 7.93794 1.24751 7.7176 1.39217 7.52201C1.55548 7.30121 1.78216 7.1249 2.23553 6.77228L9.01783 1.49715C9.36916 1.2239 9.54482 1.08727 9.73879 1.03476C9.90994 0.988415 10.0903 0.988415 10.2615 1.03476C10.4555 1.08727 10.6311 1.2239 10.9824 1.49715L17.7647 6.77228C18.2181 7.1249 18.4448 7.30121 18.6081 7.52201C18.7528 7.7176 18.8605 7.93794 18.9261 8.17221C19.0001 8.43667 19.0001 8.72385 19.0001 9.29821V16.5331C19.0001 17.6532 19.0001 18.2133 18.7822 18.6411C18.5904 19.0174 18.2844 19.3234 17.9081 19.5152C17.4803 19.7331 16.9202 19.7331 15.8001 19.7331H4.20014C3.08003 19.7331 2.51998 19.7331 2.09216 19.5152C1.71583 19.3234 1.40987 19.0174 1.21813 18.6411C1.00014 18.2133 1.00014 17.6532 1.00014 16.5331V9.29821Z" stroke="#B78A66" stroke-width="2" stroke-linecap="round" stroke-linejoin="round"/>
</g>
</svg>
