<svg preserveAspectRatio="none" width="100%" height="100%" overflow="visible" style="display: block;" viewBox="0 0 20 20.0002" fill="none" xmlns="http://www.w3.org/2000/svg">
<path id="Icon" d="M14 15.0001L19 10.0001M19 10.0001L14 5.0001M19 10.0001H7M10 15.0001C10 15.9301 10 16.3951 9.89778 16.7766C9.62038 17.8118 8.81173 18.6205 7.77646 18.8979C7.39496 19.0001 6.92997 19.0001 6 19.0001H5.5C4.10218 19.0001 3.40326 19.0001 2.85195 18.7717C2.11687 18.4673 1.53284 17.8832 1.22836 17.1481C1 16.5968 1 15.8979 1 14.5001V5.5001C1 4.10227 1 3.40336 1.22836 2.85205C1.53284 2.11696 2.11687 1.53294 2.85195 1.22846C3.40326 1.0001 4.10218 1.0001 5.5 1.0001H6C6.92997 1.0001 7.39496 1.0001 7.77646 1.10232C8.81173 1.37972 9.62038 2.18836 9.89778 3.22364C10 3.60514 10 4.07012 10 5.0001" stroke="#B78A66" stroke-width="2" stroke-linecap="round" stroke-linejoin="round"/>
</svg>
