<svg preserveAspectRatio="none" overflow="visible" style="display: block;" width="127" height="123" viewBox="0 0 127 123" fill="none">
  <path d="M122.433 52.6119C124.781 54.6082 126.705 57.3584 126.977 60.5168C127.228 65.7789 125.416 69.3423 122.094 73.3122C121.471 74.0722 120.887 74.8608 120.303 75.6507C120.186 75.8088 120.068 75.9669 119.947 76.1299C119.592 76.6085 119.237 77.0877 118.883 77.5669C117.266 79.7478 115.629 81.9103 113.962 84.0524C113.064 85.2082 112.181 86.3734 111.308 87.5489C110.299 88.9089 109.271 90.2529 108.231 91.5892C107.05 93.1063 105.888 94.6358 104.742 96.1791C103.925 97.2777 103.096 98.3664 102.261 99.4508C101.499 100.442 100.751 101.444 100.006 102.448C98.9909 103.812 97.9586 105.161 96.9137 106.503C95.7211 108.034 94.5505 109.58 93.3927 111.137C91.9759 113.042 90.5366 114.925 89.058 116.782C88.9342 116.946 88.8103 117.11 88.6826 117.279C86.0882 120.592 81.783 122.465 77.6962 122.961C73.1018 123.231 68.537 122.11 64.9855 119.05C64.0703 118.225 63.1837 117.372 62.2992 116.515C61.5463 115.788 60.7816 115.075 60.0173 114.361C59.8689 114.221 59.7206 114.082 59.5677 113.939C58.6767 113.104 57.7809 112.275 56.881 111.449C55.4503 110.136 54.037 108.804 52.624 107.472C51.7072 106.607 50.7883 105.745 49.8686 104.884C49.7231 104.747 49.5776 104.611 49.4277 104.471C49.1345 104.196 48.8413 103.921 48.5481 103.647C47.8095 102.955 47.0712 102.263 46.3328 101.571C46.037 101.294 45.7411 101.017 45.4452 100.739C43.6699 99.0757 43.6699 99.0757 43.2256 98.6593C42.9313 98.3835 42.637 98.1078 42.3426 97.8321C41.5783 97.1163 40.8149 96.3996 40.0528 95.6815C39.8955 95.5335 39.7382 95.3855 39.5761 95.2331C39.2784 94.953 38.981 94.6726 38.6838 94.392C37.9978 93.747 37.3041 93.1192 36.5845 92.512C33.8929 90.2115 32.0678 86.831 31.7041 83.2888C31.6723 82.5781 31.6647 81.873 31.6719 81.1616C31.6737 80.9115 31.6755 80.6615 31.6774 80.4038C31.7173 78.51 31.9304 76.9291 32.7223 75.1902C32.8227 74.9653 32.9231 74.7405 33.0265 74.5088C34.877 70.772 38.0481 68.4342 41.9233 67.1161C45.9623 65.9581 49.9733 66.7161 53.6069 68.699C54.9474 69.4853 56.0081 70.526 57.1029 71.6252C57.4009 71.8958 57.7015 72.1634 58.0053 72.4273C58.1552 72.5585 58.305 72.6896 58.4593 72.8247C58.8826 73.1904 59.3074 73.554 59.7335 73.9165C60.0106 74.1528 60.2877 74.3893 60.5647 74.6258C60.7068 74.7468 60.849 74.8679 60.9954 74.9926C61.8754 75.7483 62.7224 76.5287 63.5566 77.3348C66.6552 80.3185 70.0477 82.5147 74.4563 82.6321C78.1566 82.5537 81.4913 81.1995 84.0872 78.5175C84.5051 78.0628 84.9101 77.6006 85.3087 77.1287C85.7874 76.5653 86.2825 76.0193 86.7798 75.4724C87.507 74.6648 88.2022 73.8412 88.8805 72.9918C89.8509 71.7858 90.8887 70.6597 91.9464 69.5319C92.714 68.709 93.4452 67.8718 94.1472 66.9907C94.9723 65.9552 95.8463 64.9845 96.751 64.0199C97.8501 62.8478 98.8843 61.646 99.8873 60.389C100.694 59.409 101.556 58.4831 102.416 57.5509C102.918 57.0051 103.411 56.4546 103.896 55.8947C104.026 55.747 104.155 55.5994 104.288 55.4472C104.567 55.1211 104.841 54.79 105.111 54.4557C109.458 49.218 117.054 48.5284 122.433 52.6119Z" fill="#30D158"/>
</svg>