<svg preserveAspectRatio="none" width="100%" height="100%" overflow="visible" style="display: block;" viewBox="0 0 20.0002 20" fill="none" xmlns="http://www.w3.org/2000/svg">
<path id="Icon" d="M5.0001 9C4.07012 9 3.60514 9 3.22364 9.10222C2.18836 9.37962 1.37972 10.1883 1.10232 11.2235C1.0001 11.605 1.0001 12.07 1.0001 13V14.2C1.0001 15.8802 1.0001 16.7202 1.32708 17.362C1.6147 17.9265 2.07364 18.3854 2.63813 18.673C3.27986 19 4.11994 19 5.8001 19H14.2001C15.8803 19 16.7203 19 17.3621 18.673C17.9266 18.3854 18.3855 17.9265 18.6731 17.362C19.0001 16.7202 19.0001 15.8802 19.0001 14.2V13C19.0001 12.07 19.0001 11.605 18.8979 11.2235C18.6205 10.1883 17.8118 9.37962 16.7766 9.10222C16.3951 9 15.9301 9 15.0001 9M14.0001 5L10.0001 1M10.0001 1L6.0001 5M10.0001 1V13" stroke="#B78A66" stroke-width="2" stroke-linecap="round" stroke-linejoin="round"/>
</svg>
