<svg preserveAspectRatio="none" width="100%" height="100%" overflow="visible" style="display: block;" viewBox="0 0 20.0002 20" fill="none" xmlns="http://www.w3.org/2000/svg">
<path id="Icon" d="M15.0002 6.99994C15.0002 6.48812 14.8049 5.9763 14.4144 5.58579C14.0239 5.19526 13.512 5 13.0002 5M13.0002 13C16.3139 13 19.0002 10.3137 19.0002 7C19.0002 3.68629 16.3139 1 13.0002 1C9.68648 1 7.00019 3.68629 7.00019 7C7.00019 7.27368 7.01851 7.54308 7.054 7.80704C7.11237 8.24118 7.14155 8.45825 7.12191 8.59559C7.10144 8.73865 7.07539 8.81575 7.00488 8.9419C6.93719 9.063 6.8179 9.18229 6.57932 9.42087L1.46882 14.5314C1.29587 14.7043 1.20939 14.7908 1.14755 14.8917C1.09272 14.9812 1.05232 15.0787 1.02782 15.1808C1.00019 15.2959 1.00019 15.4182 1.00019 15.6627V17.4C1.00019 17.9601 1.00019 18.2401 1.10918 18.454C1.20506 18.6422 1.35804 18.7951 1.5462 18.891C1.76011 19 2.04014 19 2.60019 19H5.00019V17H7.00019V15H9.00019L10.5793 13.4209C10.8179 13.1823 10.9372 13.063 11.0583 12.9953C11.1844 12.9248 11.2615 12.8987 11.4046 12.8783C11.5419 12.8586 11.759 12.8878 12.1932 12.9462C12.4571 12.9817 12.7265 13 13.0002 13Z" stroke="#B78A66" stroke-width="2" stroke-linecap="round" stroke-linejoin="round"/>
</svg>
