<svg preserveAspectRatio="none" width="100%" height="100%" overflow="visible" style="display: block;" viewBox="0 0 21.3285 21.3284" fill="none" xmlns="http://www.w3.org/2000/svg">
<path id="Icon" d="M16.5 8.82843L12.5 4.82843M1.00001 20.3284L4.38437 19.9524C4.79786 19.9064 5.00461 19.8835 5.19785 19.8209C5.3693 19.7654 5.53245 19.687 5.68289 19.5878C5.85246 19.476 5.99955 19.3289 6.29373 19.0347L19.5 5.82843C20.6046 4.72386 20.6046 2.933 19.5 1.82843C18.3955 0.723859 16.6046 0.723857 15.5 1.82843L2.29374 15.0347C1.99955 15.3289 1.85246 15.476 1.74064 15.6455C1.64144 15.796 1.56302 15.9591 1.50752 16.1306C1.44496 16.3238 1.42199 16.5306 1.37605 16.9441L1.00001 20.3284Z" stroke="#B78A66" stroke-width="2" stroke-linecap="round" stroke-linejoin="round"/>
</svg>
