<svg preserveAspectRatio="none" width="100%" height="100%" overflow="visible" style="display: block;" viewBox="0 0 20.0001 20.0001" fill="none" xmlns="http://www.w3.org/2000/svg">
<path id="Icon" d="M11 1.50006V4.20006C11 5.88022 11 6.7203 11.327 7.36203C11.6146 7.92652 12.0735 8.38546 12.638 8.67308C13.2798 9.00006 14.1198 9.00006 15.8 9.00006H18.5M19 10.9883V14.2001C19 15.8802 19 16.7203 18.673 17.362C18.3854 17.9265 17.9265 18.3855 17.362 18.6731C16.7202 19.0001 15.8802 19.0001 14.2 19.0001H5.8C4.11984 19.0001 3.27976 19.0001 2.63803 18.6731C2.07354 18.3855 1.6146 17.9265 1.32698 17.362C1 16.7203 1 15.8802 1 14.2001V5.80006C1 4.11991 1 3.27983 1.32698 2.63809C1.6146 2.07361 2.07354 1.61466 2.63803 1.32704C3.27976 1.00006 4.11984 1.00006 5.8 1.00006H9.01178C9.74555 1.00006 10.1124 1.00006 10.4577 1.08295C10.7638 1.15644 11.0564 1.27766 11.3249 1.44214C11.6276 1.62767 11.887 1.8871 12.4059 2.40595L17.5941 7.59418C18.113 8.11303 18.3724 8.37246 18.5579 8.67521C18.7224 8.94363 18.8436 9.23626 18.9171 9.54237C19 9.88763 19 10.2545 19 10.9883Z" stroke="#B78A66" stroke-width="2" stroke-linecap="round" stroke-linejoin="round"/>
</svg>
