
<svg preserveAspectRatio="none" width="100%" height="100%" overflow="visible" style="display: block;" viewBox="0 0 21 21" fill="none">
<g clip-path="url(#clip0_1180_2031)">
<path d="M0 13.125H1.75V7.875H0V13.125ZM2.625 14.875H4.375V6.125H2.625V14.875ZM19.25 7.875V13.125H21V7.875H19.25ZM16.625 14.875H18.375V6.125H16.625V14.875ZM14.4375 2.625H6.5625C5.83625 2.625 5.25 3.21125 5.25 3.9375V17.0625C5.25 17.7887 5.83625 18.375 6.5625 18.375H14.4375C15.1637 18.375 15.75 17.7887 15.75 17.0625V3.9375C15.75 3.21125 15.1637 2.625 14.4375 2.625ZM14 16.625H7V4.375H14V16.625Z" fill="currentColor"/>
</g>
<defs>
<clipPath id="clip0_1180_2031">
<rect width="21" height="21" fill="currentColor"/>
</clipPath>
</defs>
</svg>