<svg preserveAspectRatio="none" width="100%" height="100%" overflow="visible" style="display: block;" viewBox="0 0 22.0005 20.0002" fill="none" xmlns="http://www.w3.org/2000/svg">
<path id="Icon" d="M11.9133 15H19.0872M11.9133 15L10.0002 19M11.9133 15L14.7785 9.00902C15.0094 8.52627 15.1248 8.2849 15.2828 8.20862C15.4202 8.14228 15.5803 8.14228 15.7176 8.20862C15.8756 8.2849 15.991 8.52627 16.2219 9.00902L19.0872 15M19.0872 15L21.0002 19M1.00022 3H7.00022M7.00022 3H10.5002M7.00022 3V1M10.5002 3H13.0002M10.5002 3C10.0041 5.95729 8.85281 8.63618 7.16577 10.8844M9.00022 12C8.3877 11.7248 7.76287 11.3421 7.16577 10.8844M7.16577 10.8844C5.81324 9.84776 4.60298 8.42664 4.00022 7M7.16577 10.8844C5.56108 13.0229 3.47166 14.7718 1.00022 16" stroke="#B78A66" stroke-width="2" stroke-linecap="round" stroke-linejoin="round"/>
</svg>
