<svg preserveAspectRatio="none" width="100%" height="100%" overflow="visible" style="display: block;" viewBox="0 0 20 20" fill="none" xmlns="http://www.w3.org/2000/svg">
<path id="Icon" d="M4.50001 4.50001H4.51001M15.5 4.50001H15.51M4.50001 15.5H4.51001M11 11H11.01M15.5 15.5H15.51M15 19H19V15M12 14.5V19M19 12H14.5M13.6 8.00001H17.4C17.9601 8.00001 18.2401 8 18.454 7.89101C18.6422 7.79514 18.7951 7.64216 18.891 7.454C19 7.24008 19 6.96006 19 6.40001V2.60001C19 2.03995 19 1.75993 18.891 1.54601C18.7951 1.35785 18.6422 1.20487 18.454 1.109C18.2401 1.00001 17.9601 1.00001 17.4 1.00001H13.6C13.04 1.00001 12.7599 1.00001 12.546 1.109C12.3579 1.20487 12.2049 1.35785 12.109 1.54601C12 1.75993 12 2.03995 12 2.6V6.40001C12 6.96006 12 7.24008 12.109 7.454C12.2049 7.64216 12.3579 7.79514 12.546 7.89101C12.7599 8 13.04 8.00001 13.6 8.00001ZM2.6 8.00001H6.40001C6.96006 8.00001 7.24008 8 7.454 7.89101C7.64216 7.79514 7.79514 7.64216 7.89101 7.454C8 7.24008 8.00001 6.96006 8.00001 6.40001V2.60001C8.00001 2.03995 8 1.75993 7.89101 1.54601C7.79514 1.35785 7.64216 1.20487 7.454 1.109C7.24008 1.00001 6.96006 1.00001 6.40001 1.00001H2.60001C2.03995 1.00001 1.75993 1.00001 1.54601 1.109C1.35785 1.20487 1.20487 1.35785 1.109 1.54601C1.00001 1.75993 1.00001 2.03995 1.00001 2.6V6.40001C1.00001 6.96006 1.00001 7.24008 1.109 7.454C1.20487 7.64216 1.35785 7.79514 1.54601 7.89101C1.75993 8 2.03995 8.00001 2.6 8.00001ZM2.6 19H6.40001C6.96006 19 7.24008 19 7.454 18.891C7.64216 18.7951 7.79514 18.6422 7.89101 18.454C8 18.2401 8.00001 17.9601 8.00001 17.4V13.6C8.00001 13.04 8 12.7599 7.89101 12.546C7.79514 12.3579 7.64216 12.2049 7.454 12.109C7.24008 12 6.96006 12 6.40001 12H2.60001C2.03995 12 1.75993 12 1.54601 12.109C1.35785 12.2049 1.20487 12.3579 1.109 12.546C1.00001 12.7599 1.00001 13.04 1.00001 13.6V17.4C1.00001 17.9601 1.00001 18.2401 1.109 18.454C1.20487 18.6422 1.35785 18.7951 1.54601 18.891C1.75993 19 2.03995 19 2.6 19Z" stroke="#B78A66" stroke-width="2" stroke-linecap="round" stroke-linejoin="round"/>
</svg>
