<svg width="402" height="486" viewBox="0 0 402 486" fill="none" xmlns="http://www.w3.org/2000/svg">
<circle cx="60.5" cy="68.5" r="36.5" fill="white"/>
<circle cx="97" cy="68" r="138.5" stroke="white" stroke-width="3"/>
<circle cx="383.5" cy="116.5" r="188.5" fill="#B78A66"/>
<circle cx="254" cy="-16" r="138.5" stroke="white" stroke-width="3"/>
<path d="M223.964 280C223.987 280.647 224 281.298 224 281.951C224 311.222 200.271 334.951 171 334.951C141.729 334.951 118 311.222 118 281.951C118 281.298 118.013 280.647 118.036 280H223.964Z" fill="white"/>
<path d="M191.877 411.26C191.326 412.152 190.759 413.038 190.172 413.916C163.857 453.273 110.62 463.846 71.2626 437.532C31.9055 411.218 21.3321 357.98 47.6464 318.623C48.2335 317.745 48.8345 316.881 49.448 316.032L191.877 411.26Z" fill="white"/>
</svg>
